<?xml version="1.0" encoding="utf-8"?>
<!-- Generator: Adobe Illustrator 26.0.3, SVG Export Plug-In . SVG Version: 6.00 Build 0)  -->
<svg version="1.1" id="Layer_1" xmlns="http://www.w3.org/2000/svg" xmlns:xlink="http://www.w3.org/1999/xlink" x="0px" y="0px"
	 viewBox="0 0 64 64" style="enable-background:new 0 0 64 64;" xml:space="preserve">
<style type="text/css">
	.st0{fill:none;stroke:#000000;stroke-width:3;stroke-miterlimit:10;}
	.st1{fill:#E4322C;}
	.st2{fill:none;}
	.st3{fill:#22476F;}
	.st4{fill:#3F61A6;}
	.st5{fill:#FFF200;}
	.st6{fill:#1E4474;}
	.st7{font-family:'AzoSans-Black';}
	.st8{font-size:16.7619px;}
</style>
<path class="st0" d="M39.32,28.51"/>
<g>
	<g>
		<g>
			<rect x="17.68" y="18.08" class="st1" width="14.3" height="25.94"/>
			<path class="st2" d="M1.21,27.43"/>
			<path class="st2" d="M15.69,25.14"/>
			<path class="st2" d="M17.74,19.55"/>
			<path class="st2" d="M19.78,25.14"/>
			<path class="st2" d="M17.74,19.55"/>
			<path class="st3" d="M34.15,19.55"/>
			<g>
				<rect x="31.98" y="18.4" class="st4" width="14.07" height="25.62"/>
				<g>
					<polyline class="st4" points="31.94,18.6 38.98,9.3 46.02,18.6 					"/>
				</g>
			</g>
			<g>
				<g>
					<g>
						<g>
							
								<rect x="42.56" y="24.24" transform="matrix(-1 -1.224647e-16 1.224647e-16 -1 85.9375 52.0033)" class="st4" width="0.81" height="3.52"/>
							
								<rect x="41.75" y="24.24" transform="matrix(-1 -1.224647e-16 1.224647e-16 -1 84.3099 52.0033)" class="st4" width="0.81" height="3.52"/>
						</g>
						<g>
							
								<rect x="40.12" y="24.24" transform="matrix(-1 -1.224647e-16 1.224647e-16 -1 81.0548 52.0033)" class="st4" width="0.81" height="3.52"/>
							
								<rect x="39.31" y="24.24" transform="matrix(-1 -1.224647e-16 1.224647e-16 -1 79.4272 52.0033)" class="st4" width="0.81" height="3.52"/>
						</g>
					</g>
					<g>
						
							<rect x="35.35" y="24.24" transform="matrix(-1 -1.224647e-16 1.224647e-16 -1 71.5218 52.0033)" class="st4" width="0.81" height="3.52"/>
						
							<rect x="34.54" y="24.24" transform="matrix(-1 -1.224647e-16 1.224647e-16 -1 69.8942 52.0033)" class="st4" width="0.81" height="3.52"/>
					</g>
				</g>
				<g>
					<g>
						<g>
							
								<rect x="42.56" y="31.78" transform="matrix(-1 -1.224647e-16 1.224647e-16 -1 85.9375 67.0856)" class="st4" width="0.81" height="3.52"/>
							
								<rect x="41.75" y="31.78" transform="matrix(-1 -1.224647e-16 1.224647e-16 -1 84.3099 67.0856)" class="st4" width="0.81" height="3.52"/>
						</g>
						<g>
							
								<rect x="40.12" y="31.78" transform="matrix(-1 -1.224647e-16 1.224647e-16 -1 81.0548 67.0856)" class="st4" width="0.81" height="3.52"/>
							
								<rect x="39.31" y="31.78" transform="matrix(-1 -1.224647e-16 1.224647e-16 -1 79.4272 67.0856)" class="st4" width="0.81" height="3.52"/>
						</g>
					</g>
					<g>
						
							<rect x="35.35" y="31.78" transform="matrix(-1 -1.224647e-16 1.224647e-16 -1 71.5218 67.0856)" class="st4" width="0.81" height="3.52"/>
						
							<rect x="34.54" y="31.78" transform="matrix(-1 -1.224647e-16 1.224647e-16 -1 69.8942 67.0856)" class="st4" width="0.81" height="3.52"/>
					</g>
				</g>
				<g>
					
						<rect x="41.52" y="38.65" transform="matrix(-1 -1.224647e-16 1.224647e-16 -1 85.3562 81.4975)" class="st4" width="2.33" height="4.19"/>
					
						<rect x="36.63" y="38.82" transform="matrix(-1 -1.224647e-16 1.224647e-16 -1 75.4745 82.8382)" class="st4" width="2.21" height="5.2"/>
					
						<rect x="34.19" y="38.82" transform="matrix(-1 -1.224647e-16 1.224647e-16 -1 70.1267 82.8382)" class="st4" width="1.74" height="5.2"/>
					
						<rect x="38.84" y="38.82" transform="matrix(-1 -1.224647e-16 1.224647e-16 -1 79.8922 82.8382)" class="st4" width="2.21" height="5.2"/>
				</g>
			</g>
			<path class="st2" d="M48.55,25.11"/>
			<path class="st2" d="M50.6,19.52"/>
			<path class="st4" d="M36.59,19.19"/>
			<path class="st2" d="M52.64,25.11"/>
			<path class="st2" d="M50.6,19.52"/>
			<g>
				<polyline class="st5" points="17.68,19.55 17.68,44.02 1.29,44.02 1.29,19.55 				"/>
				<g>
					<g>
						<g>
							<g>
								<rect x="3.5" y="24.24" class="st5" width="0.93" height="3.52"/>
								<rect x="4.43" y="24.24" class="st5" width="0.93" height="3.52"/>
							</g>
							<g>
								<rect x="6.29" y="24.24" class="st5" width="0.93" height="3.52"/>
								<rect x="7.22" y="24.24" class="st5" width="0.93" height="3.52"/>
							</g>
						</g>
						<g>
							<g>
								<rect x="10.94" y="24.24" class="st5" width="0.93" height="3.52"/>
								<rect x="11.87" y="24.24" class="st5" width="0.93" height="3.52"/>
							</g>
							<g>
								<rect x="13.73" y="24.24" class="st5" width="0.93" height="3.52"/>
								<rect x="14.66" y="24.24" class="st5" width="0.93" height="3.52"/>
							</g>
						</g>
					</g>
					<g>
						<g>
							<g>
								<rect x="3.5" y="31.78" class="st5" width="0.93" height="3.52"/>
								<rect x="4.43" y="31.78" class="st5" width="0.93" height="3.52"/>
							</g>
							<g>
								<rect x="6.29" y="31.78" class="st5" width="0.93" height="3.52"/>
								<rect x="7.22" y="31.78" class="st5" width="0.93" height="3.52"/>
							</g>
						</g>
						<g>
							<g>
								<rect x="10.94" y="31.78" class="st5" width="0.93" height="3.52"/>
								<rect x="11.87" y="31.78" class="st5" width="0.93" height="3.52"/>
							</g>
							<g>
								<rect x="13.73" y="31.62" class="st5" width="0.93" height="3.52"/>
								<rect x="14.66" y="31.62" class="st5" width="0.93" height="3.52"/>
							</g>
						</g>
					</g>
					<polyline class="st5" points="1.33,19.55 9.53,7.67 17.74,19.55 					"/>
					<g>
						<rect x="6.06" y="39.16" class="st5" width="1.74" height="4.86"/>
						<rect x="7.8" y="39.16" class="st5" width="1.74" height="4.86"/>
						<rect x="9.55" y="39.16" class="st5" width="1.74" height="4.86"/>
						<rect x="11.17" y="39.16" class="st5" width="1.74" height="4.86"/>
					</g>
					<g>
						<rect x="8.5" y="15.19" class="st5" width="0.93" height="3.52"/>
						<rect x="9.31" y="15.19" class="st5" width="0.93" height="3.52"/>
					</g>
				</g>
			</g>
			<g>
				<g>
					<polyline class="st6" points="62.44,18.4 62.44,44.18 46.05,44.18 46.05,18.4 					"/>
				</g>
				<g>
					<g>
						<rect x="48.14" y="23.95" class="st6" width="0.93" height="3.57"/>
						<rect x="49.07" y="23.95" class="st6" width="0.93" height="3.57"/>
					</g>
				</g>
				<g>
					<g>
						<rect x="55.58" y="23.95" class="st6" width="0.93" height="3.57"/>
						<rect x="56.51" y="23.95" class="st6" width="0.93" height="3.57"/>
					</g>
					<g>
						<rect x="58.37" y="23.95" class="st6" width="0.93" height="3.57"/>
						<rect x="59.3" y="23.95" class="st6" width="0.93" height="3.57"/>
					</g>
				</g>
				<g>
					<g>
						<g>
							<rect x="48.14" y="31.6" class="st6" width="0.93" height="3.57"/>
							<rect x="49.07" y="31.6" class="st6" width="0.93" height="3.57"/>
						</g>
						<g>
							<path class="st6" d="M51.01,31.53"/>
							<path class="st6" d="M51.01,35.1"/>
						</g>
					</g>
					<g>
						<g>
							<rect x="55.58" y="31.6" class="st6" width="0.93" height="3.57"/>
							<rect x="56.51" y="31.6" class="st6" width="0.93" height="3.57"/>
						</g>
						<g>
							<rect x="58.37" y="31.6" class="st6" width="0.93" height="3.57"/>
							<rect x="59.3" y="31.6" class="st6" width="0.93" height="3.57"/>
						</g>
					</g>
				</g>
				<polyline class="st6" points="46.13,18.68 55.08,2.33 62.52,18.68 				"/>
				<rect x="50.58" y="14.25" class="st6" width="1.28" height="3.57"/>
				<rect x="56.98" y="14.25" class="st6" width="1.28" height="3.57"/>
				<ellipse class="st6" cx="54.65" cy="12.55" rx="1.98" ry="2.89"/>
			</g>
			<path class="st2" d="M51.51,44.02l-3.91,0.06l0.24-4.58c0.07-1.33,0.88-2.32,1.8-2.21l0.76,0.09c0.81,0.09,1.42,1.12,1.35,2.28
				L51.51,44.02z"/>
			<rect x="55.58" y="38.32" class="st2" width="3.14" height="5.53"/>
			<g>
				<g>
					<g>
						<g>
							<g>
								<rect x="20.24" y="23.02" class="st1" width="0.81" height="3.75"/>
								<rect x="21.05" y="23.02" class="st1" width="0.81" height="3.75"/>
							</g>
							<g>
								<rect x="22.8" y="23.02" class="st1" width="0.81" height="3.75"/>
								<rect x="23.61" y="23.02" class="st1" width="0.81" height="3.75"/>
							</g>
						</g>
						<g>
							<rect x="27.45" y="23.02" class="st1" width="0.81" height="3.75"/>
							<rect x="28.26" y="23.02" class="st1" width="0.81" height="3.75"/>
						</g>
					</g>
					<g>
						<g>
							<g>
								<rect x="20.24" y="31.05" class="st1" width="0.81" height="3.75"/>
								<rect x="21.05" y="31.05" class="st1" width="0.81" height="3.75"/>
							</g>
							<g>
								<rect x="22.8" y="31.05" class="st1" width="0.81" height="3.75"/>
								<rect x="23.61" y="31.05" class="st1" width="0.81" height="3.75"/>
							</g>
						</g>
						<g>
							<rect x="27.45" y="31.05" class="st1" width="0.81" height="3.75"/>
							<rect x="28.26" y="31.05" class="st1" width="0.81" height="3.75"/>
						</g>
					</g>
					<g>
						<rect x="20.12" y="38.9" class="st1" width="3.26" height="5.17"/>
						<rect x="25.94" y="38.36" class="st1" width="1.74" height="4.46"/>
						<rect x="27.68" y="38.36" class="st1" width="1.74" height="4.46"/>
					</g>
				</g>
				<line class="st1" x1="31.98" y1="18.2" x2="31.98" y2="44.07"/>
				<line class="st1" x1="17.68" y1="44.07" x2="31.98" y2="44.07"/>
			</g>
			<line class="st4" x1="31.94" y1="44.07" x2="46.01" y2="44.07"/>
			<polyline class="st1" points="17.64,18.09 24.26,8.55 31.94,18.21 			"/>
		</g>
		<line class="st2" x1="17.76" y1="18.08" x2="17.76" y2="44.07"/>
		<line class="st2" x1="32.06" y1="18.2" x2="32.06" y2="44.02"/>
		<ellipse class="st1" cx="24.79" cy="16.16" rx="1.33" ry="1.92"/>
	</g>
	<g>
		<text transform="matrix(0.7087 0 0 1 0.6163 61.1077)" class="st7 st8">HOLIDAZE</text>
	</g>
</g>
</svg>
