<?xml version="1.0" encoding="utf-8"?>
<!-- Generator: Adobe Illustrator 26.0.3, SVG Export Plug-In . SVG Version: 6.00 Build 0)  -->
<svg version="1.1" id="Layer_1" xmlns="http://www.w3.org/2000/svg" xmlns:xlink="http://www.w3.org/1999/xlink" x="0px" y="0px"
	 viewBox="0 0 400 300" style="enable-background:new 0 0 400 300;" xml:space="preserve">
<style type="text/css">
	.st0{fill:none;stroke:#000000;stroke-width:3;stroke-miterlimit:10;}
	.st1{fill:#E4322C;}
	.st2{fill:none;stroke:#000000;stroke-width:2;stroke-miterlimit:10;}
	.st3{fill:#22476F;stroke:#000000;stroke-width:2;stroke-miterlimit:10;}
	.st4{fill:#3F61A6;}
	.st5{fill:#3F61A6;stroke:#000000;stroke-width:3;stroke-miterlimit:10;}
	.st6{fill:#3F61A6;stroke:#000000;stroke-width:2;stroke-miterlimit:10;}
	.st7{fill:#FFF200;stroke:#000000;stroke-width:2;stroke-miterlimit:10;}
	.st8{fill:#FFF200;stroke:#000000;stroke-width:3;stroke-miterlimit:10;}
	.st9{fill:#1E4474;stroke:#000000;stroke-width:2;stroke-miterlimit:10;}
	.st10{fill:#1E4474;stroke:#000000;stroke-width:3;stroke-miterlimit:10;}
	.st11{fill:#E4322C;stroke:#000000;stroke-width:2;stroke-miterlimit:10;}
	.st12{fill:#E4322C;stroke:#000000;stroke-width:3;stroke-miterlimit:10;}
	.st13{font-family:'AzoSans-Black';}
	.st14{font-size:63.7833px;}
</style>
<path class="st0" d="M371.26,128.98"/>
<g>
	<g>
		<g>
			<rect x="121.47" y="95.23" class="st1" width="78.44" height="98.69"/>
			<path class="st2" d="M31.13,130.79"/>
			<path class="st2" d="M110.56,122.08"/>
			<path class="st2" d="M121.77,100.83"/>
			<path class="st2" d="M132.99,122.08"/>
			<path class="st2" d="M121.77,100.83"/>
			<path class="st3" d="M211.77,100.83"/>
			<g>
				<rect x="199.9" y="96.45" class="st4" width="77.16" height="97.47"/>
				<g>
					<polyline class="st5" points="199.64,97.19 238.26,61.82 276.88,97.19 					"/>
				</g>
			</g>
			<g>
				<g>
					<g>
						<g>
							
								<rect x="257.93" y="118.68" transform="matrix(-1 -1.224647e-16 1.224647e-16 -1 520.3318 250.742)" class="st6" width="4.46" height="13.39"/>
							
								<rect x="253.47" y="118.68" transform="matrix(-1 -1.224647e-16 1.224647e-16 -1 511.4042 250.742)" class="st6" width="4.46" height="13.39"/>
						</g>
						<g>
							
								<rect x="244.54" y="118.68" transform="matrix(-1 -1.224647e-16 1.224647e-16 -1 493.549 250.742)" class="st6" width="4.46" height="13.39"/>
							
								<rect x="240.08" y="118.68" transform="matrix(-1 -1.224647e-16 1.224647e-16 -1 484.6214 250.742)" class="st6" width="4.46" height="13.39"/>
						</g>
					</g>
					<g>
						
							<rect x="218.4" y="118.68" transform="matrix(-1 -1.224647e-16 1.224647e-16 -1 441.2587 250.742)" class="st6" width="4.46" height="13.39"/>
						
							<rect x="213.93" y="118.68" transform="matrix(-1 -1.224647e-16 1.224647e-16 -1 432.3311 250.742)" class="st6" width="4.46" height="13.39"/>
					</g>
				</g>
				<g>
					<g>
						<g>
							
								<rect x="257.93" y="147.37" transform="matrix(-1 -1.224647e-16 1.224647e-16 -1 520.3318 308.1338)" class="st6" width="4.46" height="13.39"/>
							
								<rect x="253.47" y="147.37" transform="matrix(-1 -1.224647e-16 1.224647e-16 -1 511.4042 308.1338)" class="st6" width="4.46" height="13.39"/>
						</g>
						<g>
							
								<rect x="244.54" y="147.37" transform="matrix(-1 -1.224647e-16 1.224647e-16 -1 493.549 308.1338)" class="st6" width="4.46" height="13.39"/>
							
								<rect x="240.08" y="147.37" transform="matrix(-1 -1.224647e-16 1.224647e-16 -1 484.6214 308.1338)" class="st6" width="4.46" height="13.39"/>
						</g>
					</g>
					<g>
						
							<rect x="218.4" y="147.37" transform="matrix(-1 -1.224647e-16 1.224647e-16 -1 441.2587 308.1338)" class="st6" width="4.46" height="13.39"/>
						
							<rect x="213.93" y="147.37" transform="matrix(-1 -1.224647e-16 1.224647e-16 -1 432.3311 308.1338)" class="st6" width="4.46" height="13.39"/>
					</g>
				</g>
				<g>
					
						<rect x="252.19" y="173.52" transform="matrix(-1 -1.224647e-16 1.224647e-16 -1 517.1434 362.9748)" class="st6" width="12.75" height="15.94"/>
					
						<rect x="225.41" y="174.15" transform="matrix(-1 -1.224647e-16 1.224647e-16 -1 462.94 368.0763)" class="st6" width="12.12" height="19.77"/>
					
						<rect x="212.02" y="174.15" transform="matrix(-1 -1.224647e-16 1.224647e-16 -1 433.6064 368.0763)" class="st6" width="9.57" height="19.77"/>
					
						<rect x="237.53" y="174.15" transform="matrix(-1 -1.224647e-16 1.224647e-16 -1 487.1721 368.0763)" class="st6" width="12.12" height="19.77"/>
				</g>
			</g>
			<path class="st2" d="M290.79,121.97"/>
			<path class="st2" d="M302,100.72"/>
			<path class="st6" d="M225.2,99.44"/>
			<path class="st2" d="M313.22,121.97"/>
			<path class="st2" d="M302,100.72"/>
			<g>
				<polyline class="st7" points="121.47,100.82 121.47,193.92 31.56,193.92 31.56,100.82 				"/>
				<g>
					<g>
						<g>
							<g>
								<rect x="43.67" y="118.68" class="st7" width="5.1" height="13.39"/>
								<rect x="48.77" y="118.68" class="st7" width="5.1" height="13.39"/>
							</g>
							<g>
								<rect x="58.98" y="118.68" class="st7" width="5.1" height="13.39"/>
								<rect x="64.08" y="118.68" class="st7" width="5.1" height="13.39"/>
							</g>
						</g>
						<g>
							<g>
								<rect x="84.48" y="118.68" class="st7" width="5.1" height="13.39"/>
								<rect x="89.58" y="118.68" class="st7" width="5.1" height="13.39"/>
							</g>
							<g>
								<rect x="99.79" y="118.68" class="st7" width="5.1" height="13.39"/>
								<rect x="104.89" y="118.68" class="st7" width="5.1" height="13.39"/>
							</g>
						</g>
					</g>
					<g>
						<g>
							<g>
								<rect x="43.67" y="147.37" class="st7" width="5.1" height="13.39"/>
								<rect x="48.77" y="147.37" class="st7" width="5.1" height="13.39"/>
							</g>
							<g>
								<rect x="58.98" y="147.37" class="st7" width="5.1" height="13.39"/>
								<rect x="64.08" y="147.37" class="st7" width="5.1" height="13.39"/>
							</g>
						</g>
						<g>
							<g>
								<rect x="84.48" y="147.37" class="st7" width="5.1" height="13.39"/>
								<rect x="89.58" y="147.37" class="st7" width="5.1" height="13.39"/>
							</g>
							<g>
								<rect x="99.79" y="146.73" class="st7" width="5.1" height="13.39"/>
								<rect x="104.89" y="146.73" class="st7" width="5.1" height="13.39"/>
							</g>
						</g>
					</g>
					<polyline class="st8" points="31.76,100.83 76.76,55.62 121.77,100.83 					"/>
					<g>
						<rect x="57.7" y="175.43" class="st7" width="9.57" height="18.49"/>
						<rect x="67.27" y="175.43" class="st7" width="9.57" height="18.49"/>
						<rect x="76.83" y="175.43" class="st7" width="9.57" height="18.49"/>
						<rect x="85.76" y="175.43" class="st7" width="9.57" height="18.49"/>
					</g>
					<g>
						<rect x="71.09" y="84.24" class="st7" width="5.1" height="13.39"/>
						<rect x="75.56" y="84.24" class="st7" width="5.1" height="13.39"/>
					</g>
				</g>
			</g>
			<g>
				<g>
					<polyline class="st9" points="366.98,96.45 366.98,194.56 277.06,194.56 277.06,96.45 					"/>
				</g>
				<g>
					<g>
						<rect x="288.54" y="117.56" class="st9" width="5.1" height="13.59"/>
						<rect x="293.64" y="117.56" class="st9" width="5.1" height="13.59"/>
					</g>
				</g>
				<g>
					<g>
						<rect x="329.35" y="117.56" class="st9" width="5.1" height="13.59"/>
						<rect x="334.46" y="117.56" class="st9" width="5.1" height="13.59"/>
					</g>
					<g>
						<rect x="344.66" y="117.56" class="st9" width="5.1" height="13.59"/>
						<rect x="349.76" y="117.56" class="st9" width="5.1" height="13.59"/>
					</g>
				</g>
				<g>
					<g>
						<g>
							<rect x="288.54" y="146.68" class="st9" width="5.1" height="13.59"/>
							<rect x="293.64" y="146.68" class="st9" width="5.1" height="13.59"/>
						</g>
						<g>
							<path class="st9" d="M304.28,146.4"/>
							<path class="st9" d="M304.28,159.99"/>
						</g>
					</g>
					<g>
						<g>
							<rect x="329.35" y="146.68" class="st9" width="5.1" height="13.59"/>
							<rect x="334.46" y="146.68" class="st9" width="5.1" height="13.59"/>
						</g>
						<g>
							<rect x="344.66" y="146.68" class="st9" width="5.1" height="13.59"/>
							<rect x="349.76" y="146.68" class="st9" width="5.1" height="13.59"/>
						</g>
					</g>
				</g>
				<polyline class="st10" points="277.52,97.5 326.59,35.31 367.41,97.5 				"/>
				<rect x="301.93" y="80.67" class="st9" width="7.01" height="13.59"/>
				<rect x="337.01" y="80.67" class="st9" width="7.01" height="13.59"/>
				<ellipse class="st9" cx="324.25" cy="74.2" rx="10.84" ry="11"/>
			</g>
			<path class="st2" d="M307.02,193.92l-21.46,0.22l1.34-17.44c0.4-5.05,4.82-8.82,9.87-8.42l4.16,0.33
				c4.45,0.35,7.76,4.24,7.41,8.69L307.02,193.92z"/>
			<rect x="329.35" y="172.24" class="st2" width="17.22" height="21.04"/>
			<g>
				<g>
					<g>
						<g>
							<g>
								<rect x="135.5" y="114.02" class="st11" width="4.46" height="14.26"/>
								<rect x="139.96" y="114.02" class="st11" width="4.46" height="14.26"/>
							</g>
							<g>
								<rect x="149.53" y="114.02" class="st11" width="4.46" height="14.26"/>
								<rect x="153.99" y="114.02" class="st11" width="4.46" height="14.26"/>
							</g>
						</g>
						<g>
							<rect x="175.03" y="114.02" class="st11" width="4.46" height="14.26"/>
							<rect x="179.5" y="114.02" class="st11" width="4.46" height="14.26"/>
						</g>
					</g>
					<g>
						<g>
							<g>
								<rect x="135.5" y="144.58" class="st11" width="4.46" height="14.26"/>
								<rect x="139.96" y="144.58" class="st11" width="4.46" height="14.26"/>
							</g>
							<g>
								<rect x="149.53" y="144.58" class="st11" width="4.46" height="14.26"/>
								<rect x="153.99" y="144.58" class="st11" width="4.46" height="14.26"/>
							</g>
						</g>
						<g>
							<rect x="175.03" y="144.58" class="st11" width="4.46" height="14.26"/>
							<rect x="179.5" y="144.58" class="st11" width="4.46" height="14.26"/>
						</g>
					</g>
					<g>
						<rect x="134.86" y="174.45" class="st11" width="17.86" height="19.69"/>
						<rect x="166.74" y="172.41" class="st11" width="9.57" height="16.97"/>
						<rect x="176.31" y="172.41" class="st11" width="9.57" height="16.97"/>
					</g>
				</g>
				<line class="st11" x1="199.9" y1="95.69" x2="199.9" y2="194.14"/>
				<line class="st11" x1="121.47" y1="194.14" x2="199.9" y2="194.14"/>
			</g>
			<line class="st6" x1="199.68" y1="194.14" x2="276.84" y2="194.14"/>
			<polyline class="st12" points="121.25,95.26 157.56,58.94 199.68,95.72 			"/>
		</g>
		<line class="st2" x1="121.9" y1="95.23" x2="121.9" y2="194.14"/>
		<line class="st2" x1="200.33" y1="95.69" x2="200.33" y2="193.92"/>
		<circle class="st11" cx="160.47" cy="87.91" r="7.32"/>
	</g>
	<g>
		<text transform="matrix(1.0215 0 0 1 27.8555 258.9512)" class="st13 st14">HOLIDAZE</text>
	</g>
</g>
</svg>
